# xmcd
#
# Track frame offsets: 
#        150
#        11740
#        23900
#        35350
#        43815
#        56332
#        68220
#        76930
#        89890
#        103040
#        114482
#        125395
#        137737
#        152830
#        164447
#        177065
#        192787
#        202547
#        213500
#        222602
#        234762
#        244837
#        255885
#        266780
#        286672
#
# Disc length: 4440 seconds
#
# Revision: 2
# Processed by: cddbd v1.5.1PL0 Copyright (c) Steve Scherf et al.
# Submitted via: ExactAudioCopy v0.90b4
#
DISCID=5a115619
DTITLE=Helen Shapiro - A's B's and EP's
DYEAR=2003
DGENRE=Pop
TTITLE0=Don't Treat Me Like A Child
TTITLE1=You Don't Know
TTITLE2=Walkin' Back To Happiness
TTITLE3=When I'm With You
TTITLE4=Tell Me What He Said
TTITLE5=I Apologise
TTITLE6=Let' Talk About Love
TTITLE7=Sometime Yesterday
TTITLE8=Little Miss Lonely
TTITLE9=I Don't Care
TTITLE10=Keep Away From Other Girls
TTITLE11=Cry My Heart Out
TTITLE12=Will You Love Me Tomorrow?
TTITLE13=The Day The Rains Came
TTITLE14=Are You Lonesome Tonight?
TTITLE15=Beyond The Sea (La Mer)
TTITLE16=Queen For Tonight
TTITLE17=Daddy Couldn't Get Me One Of Those
TTITLE18=Woe Is Me
TTITLE19=I Walked Right In (With My Eyes Wide Open)
TTITLE20=Look Who It Is
TTITLE21=Walking In My Dreams
TTITLE22=Fever
TTITLE23=Ole Father Time
TTITLE24=Data
EXTD=
EXTT0=
EXTT1=
EXTT2=
EXTT3=
EXTT4=
EXTT5=
EXTT6=
EXTT7=
EXTT8=
EXTT9=
EXTT10=
EXTT11=
EXTT12=
EXTT13=
EXTT14=
EXTT15=
EXTT16=
EXTT17=
EXTT18=
EXTT19=
EXTT20=
EXTT21=
EXTT22=
EXTT23=
EXTT24=
PLAYORDER=
